<svg width="8" height="27" viewBox="0 0 8 27" fill="none" xmlns="http://www.w3.org/2000/svg">
<path d="M4.27783 10.072C6.22119 10.072 7.79346 11.6443 7.79346 13.5876C7.79346 15.531 6.22119 17.1033 4.27783 17.1033C2.33447 17.1033 0.762207 15.531 0.762207 13.5876C0.762207 11.6443 2.33447 10.072 4.27783 10.072ZM0.762207 3.9939C0.762207 5.93726 2.33447 7.50952 4.27783 7.50952C6.22119 7.50952 7.79346 5.93726 7.79346 3.9939C7.79346 2.05054 6.22119 0.478271 4.27783 0.478271C2.33447 0.478271 0.762207 2.05054 0.762207 3.9939ZM0.762207 23.1814C0.762207 25.1248 2.33447 26.697 4.27783 26.697C6.22119 26.697 7.79346 25.1248 7.79346 23.1814C7.79346 21.238 6.22119 19.6658 4.27783 19.6658C2.33447 19.6658 0.762207 21.238 0.762207 23.1814Z" fill="black"/>
</svg>
