<svg width="26" height="25" viewBox="0 0 26 25" fill="none" xmlns="http://www.w3.org/2000/svg">
<path d="M10.8499 11.0773H1.06799C0.744409 11.0773 0.482056 10.8149 0.482056 10.4914V0.709473C0.482056 0.385889 0.744409 0.123535 1.06799 0.123535H3.41174C3.73533 0.123535 3.99768 0.385889 3.99768 0.709473V4.52354C6.23269 2.04146 9.47913 0.488281 13.0883 0.514502C19.7731 0.563037 25.1219 5.96484 25.1076 12.6499C25.0934 19.3256 19.6774 24.7329 12.9983 24.7329C9.86897 24.7329 7.01707 23.5458 4.86794 21.5974C4.61897 21.3717 4.6075 20.9844 4.84514 20.7468L6.50369 19.0883C6.72214 18.8698 7.07312 18.858 7.30452 19.0626C8.81995 20.4036 10.8131 21.2173 12.9983 21.2173C17.7477 21.2173 21.5921 17.3737 21.5921 12.6235C21.5921 7.87417 17.7485 4.02979 12.9983 4.02979C10.1421 4.02979 7.61355 5.42021 6.05134 7.56167H10.8499C11.1735 7.56167 11.4358 7.82402 11.4358 8.14761V10.4914C11.4358 10.8149 11.1735 11.0773 10.8499 11.0773V11.0773Z" fill="#6796B6"/>
</svg>
