<svg width="25" height="25" viewBox="0 0 25 25" fill="none" xmlns="http://www.w3.org/2000/svg">
<path d="M10.4113 11.0773H0.629395C0.305811 11.0773 0.043457 10.8149 0.043457 10.4914V0.709473C0.043457 0.385889 0.305811 0.123535 0.629395 0.123535H2.97314C3.29673 0.123535 3.55908 0.385889 3.55908 0.709473V4.52354C5.79409 2.04146 9.04053 0.488281 12.6497 0.514502C19.3345 0.563037 24.6833 5.96484 24.669 12.6499C24.6548 19.3256 19.2388 24.7329 12.5597 24.7329C9.43037 24.7329 6.57847 23.5458 4.42935 21.5974C4.18037 21.3717 4.1689 20.9844 4.40654 20.7468L6.06509 19.0883C6.28354 18.8698 6.63452 18.858 6.86592 19.0626C8.38135 20.4036 10.3745 21.2173 12.5597 21.2173C17.3091 21.2173 21.1535 17.3737 21.1535 12.6235C21.1535 7.87417 17.3099 4.02979 12.5597 4.02979C9.70347 4.02979 7.17495 5.42021 5.61274 7.56167H10.4113C10.7349 7.56167 10.9972 7.82402 10.9972 8.14761V10.4914C10.9972 10.8149 10.7349 11.0773 10.4113 11.0773V11.0773Z" fill="black"/>
</svg>
