<svg width="255" height="219" viewBox="0 0 255 219" fill="none" xmlns="http://www.w3.org/2000/svg">
<g clip-path="url(#clip0_59_338)">
<ellipse cx="122.5" cy="110.5" rx="80.5" ry="78.5" fill="#FFD9D5"/>
<ellipse cx="122.5" cy="204" rx="43.5" ry="15" fill="#B5B5B5" fill-opacity="0.2"/>
<path d="M74 101C74 101 92 111.643 123 111.643C154 111.643 170 101 170 101L154.5 202.357C154.5 202.357 143 213 123.5 213C104 213 90.5 202.357 90.5 202.357L74 101Z" fill="#E0BEE8"/>
<path d="M119.5 209C119.5 210.381 120.619 211.5 122 211.5C123.381 211.5 124.5 210.381 124.5 209L119.5 209ZM119.5 117L119.5 209L124.5 209L124.5 117L119.5 117Z" fill="#D9AEE3"/>
<path d="M105.504 205.137C105.58 206.516 106.759 207.572 108.137 207.496C109.516 207.42 110.572 206.241 110.496 204.863L105.504 205.137ZM100.504 114.137L105.504 205.137L110.496 204.863L105.496 113.863L100.504 114.137Z" fill="#D9AEE3"/>
<path d="M138.496 207.14C138.422 208.519 137.244 209.574 135.866 209.496C134.487 209.419 133.43 208.239 133.504 206.86L138.496 207.14ZM143.496 114.224L138.496 207.14L133.504 206.86L138.504 113.944L143.496 114.224Z" fill="#D9AEE3"/>
<path d="M94.5185 200.303C94.686 201.674 95.9328 202.649 97.3033 202.482C98.6738 202.314 99.649 201.067 99.4815 199.697L94.5185 200.303ZM83.5185 110.303L94.5185 200.303L99.4815 199.697L88.4815 109.697L83.5185 110.303Z" fill="#D9AEE3"/>
<path d="M150.481 202.204C150.317 203.575 149.073 204.548 147.703 204.377C146.333 204.206 145.355 202.956 145.519 201.585L150.481 202.204ZM161.481 110.31L150.481 202.204L145.519 201.585L156.519 109.69L161.481 110.31Z" fill="#D9AEE3"/>
<ellipse cx="122" cy="101.5" rx="48" ry="15.5" fill="#D290DC"/>
<ellipse cx="122" cy="101" rx="44" ry="13" fill="#8B5997"/>
<mask id="mask0_59_338" style="mask-type:alpha" maskUnits="userSpaceOnUse" x="76" y="47" width="96" height="67">
<path d="M165.959 101.046C165.959 108.199 146.268 113.999 121.979 113.999C97.6902 113.999 78 108.199 78 101.046C78 93.8916 70.9999 84.5001 83.9999 58.4999C98.4999 38.4999 194 41.5 165.959 101.046Z" fill="#BB6F6F"/>

                                    </mask>
<g mask="url(#mask0_59_338)">
<g filter="url(#filter0_d_59_338)">
<rect x="98" y="78.9999" width="49.5098" height="50" rx="24.7549" fill="#FFF0BA" shape-rendering="crispEdges">
                                    <animate attributeName="x" values="98;90.6404;103.825;98;98;98" begin="0s" dur="2s" repeatCount="indefinite" calcMode="linear" keyTimes="0;0.2;0.4;0.6;0.8;1"/>
                                    <animate attributeName="y" values="78.9999;89.6312;73.3441;78.9999;78.9999;78.9999" begin="0s" dur="2s" repeatCount="indefinite" calcMode="linear" keyTimes="0;0.2;0.4;0.6;0.8;1"/>
                                    <animateTransform attributeName="transform" type="rotate" values="0 98 78.9999;-21.1776 90.6404 89.6312;12.1666 103.825 73.3441;0 103.825 73.3441;0 103.825 73.3441;0 103.825 73.3441" begin="0s" dur="2s" repeatCount="indefinite" calcMode="linear" keyTimes="0;0.2;0.4;0.6;0.8;1"/></rect>
<g clip-path="url(#clip1_59_338)">
<path d="M123.024 97.1371C120.884 97.1371 119.498 98.0138 118.41 99.5773C118.212 99.8609 118.273 100.25 118.549 100.459L119.705 101.335C119.983 101.546 120.379 101.497 120.596 101.224C121.268 100.383 121.766 99.8986 122.815 99.8986C123.64 99.8986 124.66 100.429 124.66 101.229C124.66 101.834 124.161 102.144 123.346 102.601C122.397 103.133 121.14 103.796 121.14 105.453L121.14 105.716C121.14 106.071 121.428 106.359 121.784 106.359L123.726 106.359C124.082 106.359 124.37 106.071 124.37 105.716L124.37 105.561C124.37 104.412 127.728 104.364 127.728 101.255C127.728 98.9132 125.299 97.1371 123.024 97.1371ZM122.755 107.149C121.731 107.149 120.898 107.982 120.898 109.006C120.898 110.03 121.731 110.863 122.755 110.863C123.779 110.863 124.612 110.03 124.612 109.006C124.612 107.982 123.779 107.149 122.755 107.149Z" fill="#391741">
                                    <animate attributeName="d" values="M123.024 97.1371C120.884 97.1371 119.498 98.0138 118.41 99.5773C118.212 99.8609 118.273 100.25 118.549 100.459L119.705 101.335C119.983 101.546 120.379 101.497 120.596 101.224C121.268 100.383 121.766 99.8986 122.815 99.8986C123.64 99.8986 124.66 100.429 124.66 101.229C124.66 101.834 124.161 102.144 123.346 102.601C122.397 103.133 121.14 103.796 121.14 105.453L121.14 105.716C121.14 106.071 121.428 106.359 121.784 106.359L123.726 106.359C124.082 106.359 124.37 106.071 124.37 105.716L124.37 105.561C124.37 104.412 127.728 104.364 127.728 101.255C127.728 98.9132 125.299 97.1371 123.024 97.1371ZM122.755 107.149C121.731 107.149 120.898 107.982 120.898 109.006C120.898 110.03 121.731 110.863 122.755 110.863C123.779 110.863 124.612 110.03 124.612 109.006C124.612 107.982 123.779 107.149 122.755 107.149Z;M120.526 97.5036C118.531 98.2766 117.555 99.5947 117.106 101.446C117.024 101.782 117.221 102.122 117.553 102.217L118.949 102.617C119.284 102.713 119.635 102.524 119.74 102.191C120.062 101.164 120.351 100.533 121.329 100.154C122.098 99.856 123.241 99.9824 123.53 100.728C123.749 101.292 123.395 101.762 122.801 102.482C122.108 103.321 121.175 104.393 121.774 105.938L121.869 106.183C121.997 106.514 122.37 106.679 122.701 106.551L124.513 105.849C124.844 105.72 125.009 105.348 124.88 105.016L124.825 104.872C124.41 103.801 127.524 102.543 126.4 99.6437C125.554 97.4603 122.648 96.6815 120.526 97.5036ZM123.893 106.936C122.938 107.306 122.462 108.384 122.832 109.338C123.202 110.293 124.279 110.769 125.234 110.399C126.189 110.029 126.665 108.952 126.295 107.997C125.925 107.042 124.847 106.566 123.893 106.936Z;M124.464 96.3478C122.372 95.8969 120.833 96.4618 119.44 97.7608C119.187 97.9965 119.164 98.3895 119.389 98.6516L120.335 99.7525C120.563 100.017 120.96 100.052 121.23 99.8316C122.064 99.1508 122.653 98.7823 123.678 99.0034C124.484 99.1772 125.37 99.911 125.201 100.693C125.074 101.284 124.52 101.482 123.628 101.757C122.588 102.077 121.22 102.46 120.87 104.08L120.815 104.337C120.74 104.684 120.961 105.026 121.308 105.101L123.207 105.511C123.555 105.586 123.897 105.365 123.972 105.017L124.005 104.866C124.247 103.743 127.539 104.404 128.195 101.364C128.688 99.0756 126.688 96.8274 124.464 96.3478ZM122.091 106.078C121.09 105.862 120.101 106.501 119.885 107.502C119.669 108.503 120.308 109.493 121.309 109.708C122.31 109.924 123.299 109.285 123.515 108.285C123.731 107.284 123.092 106.294 122.091 106.078Z;M123.024 97.1371C120.884 97.1371 119.498 98.0138 118.41 99.5773C118.212 99.8609 118.273 100.25 118.549 100.459L119.705 101.335C119.983 101.546 120.379 101.497 120.596 101.224C121.268 100.383 121.766 99.8986 122.815 99.8986C123.64 99.8986 124.66 100.429 124.66 101.229C124.66 101.834 124.161 102.144 123.346 102.601C122.397 103.133 121.14 103.796 121.14 105.453L121.14 105.716C121.14 106.071 121.428 106.359 121.784 106.359L123.726 106.359C124.082 106.359 124.37 106.071 124.37 105.716L124.37 105.561C124.37 104.412 127.728 104.364 127.728 101.255C127.728 98.9132 125.299 97.1371 123.024 97.1371ZM122.755 107.149C121.731 107.149 120.898 107.982 120.898 109.006C120.898 110.03 121.731 110.863 122.755 110.863C123.779 110.863 124.612 110.03 124.612 109.006C124.612 107.982 123.779 107.149 122.755 107.149Z;M123.024 97.1371C120.884 97.1371 119.498 98.0138 118.41 99.5773C118.212 99.8609 118.273 100.25 118.549 100.459L119.705 101.335C119.983 101.546 120.379 101.497 120.596 101.224C121.268 100.383 121.766 99.8986 122.815 99.8986C123.64 99.8986 124.66 100.429 124.66 101.229C124.66 101.834 124.161 102.144 123.346 102.601C122.397 103.133 121.14 103.796 121.14 105.453L121.14 105.716C121.14 106.071 121.428 106.359 121.784 106.359L123.726 106.359C124.082 106.359 124.37 106.071 124.37 105.716L124.37 105.561C124.37 104.412 127.728 104.364 127.728 101.255C127.728 98.9132 125.299 97.1371 123.024 97.1371ZM122.755 107.149C121.731 107.149 120.898 107.982 120.898 109.006C120.898 110.03 121.731 110.863 122.755 110.863C123.779 110.863 124.612 110.03 124.612 109.006C124.612 107.982 123.779 107.149 122.755 107.149Z;M123.023 97.1371C120.884 97.1371 119.498 98.0138 118.41 99.5773C118.212 99.8609 118.273 100.25 118.548 100.459L119.705 101.335C119.983 101.546 120.379 101.497 120.596 101.224C121.268 100.383 121.766 99.8986 122.815 99.8986C123.64 99.8986 124.66 100.429 124.66 101.229C124.66 101.834 124.161 102.144 123.346 102.601C122.397 103.133 121.14 103.796 121.14 105.453L121.14 105.716C121.14 106.071 121.428 106.359 121.783 106.359L123.726 106.359C124.082 106.359 124.37 106.071 124.37 105.716L124.37 105.561C124.37 104.412 127.728 104.364 127.728 101.255C127.728 98.9132 125.299 97.1371 123.023 97.1371ZM122.755 107.149C121.731 107.149 120.898 107.982 120.898 109.006C120.898 110.03 121.731 110.863 122.755 110.863C123.779 110.863 124.612 110.03 124.612 109.006C124.612 107.982 123.779 107.149 122.755 107.149Z" begin="0s" dur="2s" repeatCount="indefinite" calcMode="linear" keyTimes="0;0.2;0.4;0.6;0.8;1"/></path>
</g>
</g>
</g>
<ellipse cx="122" cy="100.5" rx="48" ry="15.5" fill="#A86FB5">
                                    <animate attributeName="cx" values="122;122.781;122;121.138;122;122" begin="0s" dur="2s" repeatCount="indefinite" calcMode="linear" keyTimes="0;0.2;0.4;0.6;0.8;1"/>
                                    <animate attributeName="cy" values="100.5;41.3966;24.5;41.3733;100.5;100.5" begin="0s" dur="2s" repeatCount="indefinite" calcMode="linear" keyTimes="0;0.2;0.4;0.6;0.8;1"/>
                                    <animateTransform attributeName="transform" type="rotate" values="0 122 100.5;-15.0838 122.781 41.3966;0 122.781 41.3966;16.6977 121.138 41.3733;0 121.138 41.3733;0 121.138 41.3733" begin="0s" dur="2s" repeatCount="indefinite" calcMode="linear" keyTimes="0;0.2;0.4;0.6;0.8;1"/></ellipse>
<ellipse cx="122" cy="97.5" rx="48" ry="15.5" fill="#E0BEE8">
                                    <animate attributeName="cy" values="97.5;38.4999;21.5;38.4999;97.5;97.5" begin="0s" dur="2s" repeatCount="indefinite" calcMode="linear" keyTimes="0;0.2;0.4;0.6;0.8;1"/>
                                    <animateTransform attributeName="transform" type="rotate" values="0 122 97.5;-15.0838 122 38.4999;0 122 38.4999;16.6977 122 38.4999;0 122 38.4999;0 122 38.4999" begin="0s" dur="2s" repeatCount="indefinite" calcMode="linear" keyTimes="0;0.2;0.4;0.6;0.8;1"/></ellipse>
<path d="M134 87C134 89.7614 128.627 92 122 92C115.373 92 110 89.7614 110 87C109 79 115.373 82 122 82C128.627 82 134.5 78.5 134 87Z" fill="#A86FB5">
                                    <animate attributeName="d" values="M134 87C134 89.7614 128.627 92 122 92C115.373 92 110 89.7614 110 87C109 79 115.373 82 122 82C128.627 82 134.5 78.5 134 87Z;M130.854 25.2389C131.573 27.9052 126.968 31.4647 120.569 33.1894C114.17 34.914 108.4 34.1507 107.681 31.4844C104.634 24.0203 111.567 25.2585 117.967 23.5339C124.366 21.8092 129.125 16.9016 130.854 25.2389Z;M134 11C134 13.7614 128.627 16 122 16C115.373 16 110 13.7614 110 11C109 3 115.373 5.99996 122 5.99996C128.627 5.99996 134.5 2.5 134 11Z;M136.511 31.8904C135.717 34.5354 129.928 35.136 123.58 33.2318C117.232 31.3276 112.729 27.6397 113.523 24.9947C114.864 17.0448 120.106 21.7492 126.454 23.6534C132.801 25.5576 139.432 23.8926 136.511 31.8904Z;M134 87C134 89.7614 128.627 92 122 92C115.373 92 110 89.7614 110 87C109 79 115.373 82 122 82C128.627 82 134.5 78.5 134 87Z;M134 87C134 89.7614 128.627 92 122 92C115.373 92 110 89.7614 110 87C109 79 115.373 82 122 82C128.627 82 134.5 78.5 134 87Z" begin="0s" dur="2s" repeatCount="indefinite" calcMode="linear" keyTimes="0;0.2;0.4;0.6;0.8;1"/></path>
<ellipse cx="122" cy="84" rx="12" ry="5" fill="#E8C9EF">
                                    <animate attributeName="cx" values="122;118.487;122;125.879;122;122" begin="0s" dur="2s" repeatCount="indefinite" calcMode="linear" keyTimes="0;0.2;0.4;0.6;0.8;1"/>
                                    <animate attributeName="cy" values="84;25.4651;8;25.5692;84;84" begin="0s" dur="2s" repeatCount="indefinite" calcMode="linear" keyTimes="0;0.2;0.4;0.6;0.8;1"/>
                                    <animateTransform attributeName="transform" type="rotate" values="0 122 84;-15.0838 118.487 25.4651;0 118.487 25.4651;16.6977 125.879 25.5692;0 125.879 25.5692;0 125.879 25.5692" begin="0s" dur="2s" repeatCount="indefinite" calcMode="linear" keyTimes="0;0.2;0.4;0.6;0.8;1"/></ellipse>
</g>
<defs>
<filter id="filter0_d_59_338" x="83.2941" y="65.7646" width="78.9216" height="79.4118" filterUnits="userSpaceOnUse" color-interpolation-filters="sRGB">
<feFlood flood-opacity="0" result="BackgroundImageFix"/>
<feColorMatrix in="SourceAlpha" type="matrix" values="0 0 0 0 0 0 0 0 0 0 0 0 0 0 0 0 0 0 127 0" result="hardAlpha"/>
<feOffset dy="1.47059"/>
<feGaussianBlur stdDeviation="7.35294"/>
<feComposite in2="hardAlpha" operator="out"/>
<feColorMatrix type="matrix" values="0 0 0 0 0 0 0 0 0 0 0 0 0 0 0 0 0 0 0.1 0"/>
<feBlend mode="normal" in2="BackgroundImageFix" result="effect1_dropShadow_59_338">
                                    </feBlend>
<feBlend mode="normal" in="SourceGraphic" in2="effect1_dropShadow_59_338" result="shape">
                                    </feBlend>

                                    
                                    <animate attributeName="x" values="83.2941;75.9345;78.5812;83.2941;83.2941;83.2941" begin="0s" dur="2s" repeatCount="indefinite" calcMode="linear" keyTimes="0;0.2;0.4;0.6;0.8;1"/>
                                    <animate attributeName="y" values="65.7646;58.5099;60.1088;65.7646;65.7646;65.7646" begin="0s" dur="2s" repeatCount="indefinite" calcMode="linear" keyTimes="0;0.2;0.4;0.6;0.8;1"/>
                                    <animate attributeName="width" values="78.9216;93.641;88.3473;78.9215;78.9215;78.9215" begin="0s" dur="2s" repeatCount="indefinite" calcMode="linear" keyTimes="0;0.2;0.4;0.6;0.8;1"/>
                                    <animate attributeName="height" values="79.4118;93.921;88.7232;79.4118;79.4118;79.4118" begin="0s" dur="2s" repeatCount="indefinite" calcMode="linear" keyTimes="0;0.2;0.4;0.6;0.8;1"/></filter>
<clipPath id="clip0_59_338">
<rect width="255" height="219" fill="white"/>
</clipPath>
<clipPath id="clip1_59_338">
<rect width="13.7255" height="13.7255" fill="white" transform="translate(115.892 97.1371)"/>
</clipPath>
</defs>
</svg>