<svg width="14" height="14" viewBox="0 0 14 14" fill="none" xmlns="http://www.w3.org/2000/svg">
<path d="M7.74196 3.49653L10.5607 6.31528C10.6795 6.43403 10.6795 6.62778 10.5607 6.74653L3.73571 13.5715L0.835713 13.8934C0.448213 13.9372 0.120088 13.609 0.163838 13.2215L0.485713 10.3215L7.31071 3.49653C7.42946 3.37778 7.62321 3.37778 7.74196 3.49653ZM12.8045 2.78091L11.2795 1.25591C10.8045 0.780908 10.0326 0.780908 9.55446 1.25591L8.44821 2.36216C8.32946 2.48091 8.32946 2.67466 8.44821 2.79341L11.267 5.61216C11.3857 5.73091 11.5795 5.73091 11.6982 5.61216L12.8045 4.50591C13.2795 4.02778 13.2795 3.25591 12.8045 2.78091Z" fill="white"/>
</svg>
