<?xml version="1.0" encoding="utf-8"?>
<!-- Generator: Adobe Illustrator 26.3.1, SVG Export Plug-In . SVG Version: 6.00 Build 0)  -->
<svg version="1.1" id="Camada_1" xmlns="http://www.w3.org/2000/svg" xmlns:xlink="http://www.w3.org/1999/xlink" x="0px" y="0px"
	 viewBox="0 0 39 34" style="enable-background:new 0 0 39 34;" xml:space="preserve">
<style type="text/css">
	.st0{fill:#391741;}
</style>
<path class="st0" d="M19.5,0.2c-10.5,0-19,6.9-19,15.4c0,3.7,1.6,7.1,4.2,9.7c-0.9,3.7-4,7.1-4.1,7.1c-0.2,0.2-0.2,0.4-0.1,0.6
	c0.1,0.2,0.3,0.4,0.5,0.4c4.9,0,8.6-2.4,10.4-3.8c2.4,0.9,5.1,1.4,8,1.4c10.5,0,19-6.9,19-15.4C38.5,7.1,30,0.2,19.5,0.2z M10,18
	c-1.3,0-2.4-1.1-2.4-2.4c0-1.3,1.1-2.4,2.4-2.4c1.3,0,2.4,1.1,2.4,2.4C12.3,16.9,11.3,18,10,18z M19.5,18c-1.3,0-2.4-1.1-2.4-2.4
	c0-1.3,1.1-2.4,2.4-2.4c1.3,0,2.4,1.1,2.4,2.4C21.8,16.9,20.8,18,19.5,18z M29,18c-1.3,0-2.4-1.1-2.4-2.4c0-1.3,1.1-2.4,2.4-2.4
	c1.3,0,2.4,1.1,2.4,2.4C31.3,16.9,30.3,18,29,18z"/>
</svg>
