<?xml version="1.0" encoding="utf-8"?>
<!-- Generator: Adobe Illustrator 26.3.1, SVG Export Plug-In . SVG Version: 6.00 Build 0)  -->
<svg version="1.1" id="Camada_1" xmlns="http://www.w3.org/2000/svg" xmlns:xlink="http://www.w3.org/1999/xlink" x="0px" y="0px"
	 viewBox="0 0 39 39" style="enable-background:new 0 0 39 39;" xml:space="preserve">
<style type="text/css">
	.st0{fill:#391741;}
</style>
<path class="st0" d="M19.7,0.4c-10.5,0-19,8.5-19,19c0,10.5,8.5,19,19,19c10.5,0,19-8.5,19-19C38.7,8.9,30.2,0.4,19.7,0.4z
	 M30.8,21.6c0,0.5-0.4,0.9-0.9,0.9h-7v7c0,0.5-0.4,0.9-0.9,0.9h-4.3c-0.5,0-0.9-0.4-0.9-0.9v-7h-7c-0.5,0-0.9-0.4-0.9-0.9v-4.3
	c0-0.5,0.4-0.9,0.9-0.9h7v-7c0-0.5,0.4-0.9,0.9-0.9h4.3c0.5,0,0.9,0.4,0.9,0.9v7h7c0.5,0,0.9,0.4,0.9,0.9V21.6z"/>
</svg>
