<svg width="10" height="11" viewBox="0 0 10 11" fill="none" xmlns="http://www.w3.org/2000/svg">
<path d="M9.34662 8.13382L6.71441 5.46067L9.22506 2.66953C9.53314 2.32703 9.52104 1.78326 9.19805 1.45524L8.61311 0.861211C8.29012 0.533194 7.77833 0.544936 7.47026 0.887432L4.95961 3.67857L2.3274 1.00543C2.00441 0.677408 1.49262 0.68915 1.18454 1.03165L0.62662 1.6519C0.318542 1.9944 0.330639 2.53817 0.653633 2.86618L3.28584 5.53933L0.775192 8.33047C0.467114 8.67297 0.479211 9.21674 0.802205 9.54476L1.38714 10.1388C1.71013 10.4668 2.22192 10.4551 2.53 10.1126L5.04065 7.32143L7.67286 9.99457C7.99585 10.3226 8.50763 10.3109 8.81571 9.96835L9.37363 9.3481C9.68171 9.0056 9.66962 8.46183 9.34662 8.13382Z" fill="#391741"/>
</svg>
