<svg width="10" height="10" viewBox="0 0 10 10" fill="none" xmlns="http://www.w3.org/2000/svg">
<path d="M5 0.15625C2.32422 0.15625 0.15625 2.32422 0.15625 5C0.15625 7.67578 2.32422 9.84375 5 9.84375C7.67578 9.84375 9.84375 7.67578 9.84375 5C9.84375 2.32422 7.67578 0.15625 5 0.15625ZM6.11523 6.99414L4.39258 5.74219C4.33203 5.69727 4.29688 5.62695 4.29688 5.55273V2.26562C4.29688 2.13672 4.40234 2.03125 4.53125 2.03125H5.46875C5.59766 2.03125 5.70312 2.13672 5.70312 2.26562V4.95508L6.94336 5.85742C7.04883 5.93359 7.07031 6.08008 6.99414 6.18555L6.44336 6.94336C6.36719 7.04688 6.2207 7.07031 6.11523 6.99414Z" fill="#8B5997"/>
</svg>
