<?xml version="1.0" encoding="utf-8"?>
<!-- Generator: Adobe Illustrator 26.3.1, SVG Export Plug-In . SVG Version: 6.00 Build 0)  -->
<svg version="1.1" id="Camada_1" xmlns="http://www.w3.org/2000/svg" xmlns:xlink="http://www.w3.org/1999/xlink" x="0px" y="0px"
	 viewBox="0 0 24 39" style="enable-background:new 0 0 24 39;" xml:space="preserve">
<style type="text/css">
	.st0{fill:#391741;}
</style>
<path class="st0" d="M20.4,0.9H3.7c-2,0-3.6,1.6-3.6,3.6v30.9c0,2,1.6,3.6,3.6,3.6h16.6c2,0,3.6-1.6,3.6-3.6V4.5
	C23.9,2.5,22.3,0.9,20.4,0.9z M12.1,36.5c-1.3,0-2.4-1.1-2.4-2.4c0-1.3,1.1-2.4,2.4-2.4s2.4,1.1,2.4,2.4
	C14.4,35.5,13.4,36.5,12.1,36.5z M20.4,28.5c0,0.5-0.4,0.9-0.9,0.9H4.6c-0.5,0-0.9-0.4-0.9-0.9V5.4c0-0.5,0.4-0.9,0.9-0.9h14.8
	c0.5,0,0.9,0.4,0.9,0.9V28.5z"/>
</svg>
