<?xml version="1.0" encoding="utf-8"?>
<!-- Generator: Adobe Illustrator 26.3.1, SVG Export Plug-In . SVG Version: 6.00 Build 0)  -->
<svg version="1.1" id="Camada_1" xmlns="http://www.w3.org/2000/svg" xmlns:xlink="http://www.w3.org/1999/xlink" x="0px" y="0px"
	 viewBox="0 0 43 33" style="enable-background:new 0 0 43 33;" xml:space="preserve">
<style type="text/css">
	.st0{fill:#391741;}
</style>
<path class="st0" d="M39.7,0.5c-3.9,0.2-11.7,1-16.5,4c-0.3,0.2-0.5,0.6-0.5,0.9v26c0,0.8,0.9,1.3,1.7,1c4.9-2.5,12.1-3.2,15.6-3.4
	c1.2-0.1,2.1-1,2.1-2.2V2.7C42.1,1.4,41,0.4,39.7,0.5z M19.9,4.5c-4.8-2.9-12.6-3.7-16.5-4C2.1,0.4,1,1.4,1,2.7v24.1
	C1,28,1.9,29,3.1,29c3.5,0.2,10.7,0.9,15.6,3.4c0.8,0.4,1.7-0.1,1.7-1v-26C20.4,5,20.2,4.7,19.9,4.5z"/>
</svg>
