<svg width="26" height="26" viewBox="0 0 26 26" fill="none" xmlns="http://www.w3.org/2000/svg">
<g clip-path="url(#clip0_664_4826)">
<path d="M24.7676 13.83L16.5645 22.0331C15.832 22.7656 14.5625 22.2529 14.5625 21.2031V16.5156H7.92188C7.27246 16.5156 6.75 15.9931 6.75 15.3437V10.6562C6.75 10.0068 7.27246 9.48431 7.92188 9.48431H14.5625V4.79681C14.5625 3.75189 15.8271 3.23431 16.5645 3.96674L24.7676 12.1699C25.2217 12.6288 25.2217 13.371 24.7676 13.83ZM9.875 21.789V19.8359C9.875 19.5136 9.61133 19.2499 9.28906 19.2499H5.1875C4.32324 19.2499 3.625 18.5517 3.625 17.6874V8.31244C3.625 7.44818 4.32324 6.74994 5.1875 6.74994H9.28906C9.61133 6.74994 9.875 6.48627 9.875 6.164V4.21088C9.875 3.88861 9.61133 3.62494 9.28906 3.62494H5.1875C2.59961 3.62494 0.5 5.72455 0.5 8.31244V17.6874C0.5 20.2753 2.59961 22.3749 5.1875 22.3749H9.28906C9.61133 22.3749 9.875 22.1113 9.875 21.789Z" fill="#E3E3E3"/>
</g>
<defs>
<clipPath id="clip0_664_4826">
<rect width="25" height="25" fill="white" transform="translate(0.5 0.5)"/>
</clipPath>
</defs>
</svg>
