<?xml version="1.0" encoding="utf-8"?>
<!-- Generator: Adobe Illustrator 26.3.1, SVG Export Plug-In . SVG Version: 6.00 Build 0)  -->
<svg version="1.1" id="Camada_1" xmlns="http://www.w3.org/2000/svg" xmlns:xlink="http://www.w3.org/1999/xlink" x="0px" y="0px"
	 viewBox="0 0 41 38" style="enable-background:new 0 0 41 38;" xml:space="preserve">
<style type="text/css">
	.st0{fill:#391741;}
</style>
<path class="st0" d="M23.3,12.7c-1.6,0-8.6,0.2-13,6.8v-6.8c0-4.2-3.4-7.6-7.7-7.6C1.1,5.1,0,6.2,0,7.6s1.1,2.5,2.6,2.5
	c1.4,0,2.6,1.1,2.6,2.5v20.3c0,2.8,2.3,5.1,5.1,5.1h14.1c0.7,0,1.3-0.6,1.3-1.3v-1.3c0-1.4-1.1-2.5-2.6-2.5h-2.6l10.2-7.6v11.4
	c0,0.7,0.6,1.3,1.3,1.3h2.6c0.7,0,1.3-0.6,1.3-1.3V20.4c-0.8,0.2-1.7,0.4-2.6,0.4C28.4,20.8,24.2,17.3,23.3,12.7z M35.9,5.1h-5.1
	L25.6,0v10.6c0,4.2,3.4,7.6,7.7,7.6s7.7-3.4,7.7-7.6V0L35.9,5.1z M30.1,11.4c-0.7,0-1.3-0.6-1.3-1.3c0-0.7,0.6-1.3,1.3-1.3
	c0.7,0,1.3,0.6,1.3,1.3C31.4,10.8,30.8,11.4,30.1,11.4z M36.5,11.4c-0.7,0-1.3-0.6-1.3-1.3c0-0.7,0.6-1.3,1.3-1.3
	c0.7,0,1.3,0.6,1.3,1.3C37.8,10.8,37.2,11.4,36.5,11.4z"/>
</svg>
