<svg width="23" height="26" viewBox="0 0 23 26" fill="none" xmlns="http://www.w3.org/2000/svg">
<path d="M21.8878 1.61695H16.0284L15.5695 0.703866C15.4722 0.508658 15.3225 0.344453 15.137 0.229725C14.9515 0.114996 14.7377 0.0542955 14.5197 0.0544519H8.9386C8.72101 0.0536155 8.50759 0.11409 8.32278 0.228946C8.13797 0.343802 7.98926 0.508395 7.89368 0.703866L7.43469 1.61695H1.57532C1.36812 1.61695 1.1694 1.69926 1.02289 1.84577C0.876377 1.99229 0.794067 2.191 0.794067 2.3982L0.794067 3.9607C0.794067 4.1679 0.876377 4.36662 1.02289 4.51313C1.1694 4.65964 1.36812 4.74195 1.57532 4.74195H21.8878C22.095 4.74195 22.2937 4.65964 22.4402 4.51313C22.5868 4.36662 22.6691 4.1679 22.6691 3.9607V2.3982C22.6691 2.191 22.5868 1.99229 22.4402 1.84577C22.2937 1.69926 22.095 1.61695 21.8878 1.61695V1.61695ZM3.39172 22.8572C3.42899 23.4522 3.69161 24.0107 4.12613 24.4189C4.56065 24.8271 5.1344 25.0544 5.73059 25.0545H17.7325C18.3287 25.0544 18.9025 24.8271 19.337 24.4189C19.7715 24.0107 20.0341 23.4522 20.0714 22.8572L21.1066 6.30445H2.35657L3.39172 22.8572Z" fill="black"/>
</svg>
