<?xml version="1.0" encoding="utf-8"?>
<!-- Generator: Adobe Illustrator 26.3.1, SVG Export Plug-In . SVG Version: 6.00 Build 0)  -->
<svg version="1.1" id="Camada_1" xmlns="http://www.w3.org/2000/svg" xmlns:xlink="http://www.w3.org/1999/xlink" x="0px" y="0px"
	 viewBox="0 0 34 39" style="enable-background:new 0 0 34 39;" xml:space="preserve">
<style type="text/css">
	.st0{fill:#391741;}
</style>
<path class="st0" d="M17.3,19.6c5.2,0,9.5-4.3,9.5-9.5c0-5.2-4.3-9.5-9.5-9.5s-9.5,4.3-9.5,9.5C7.8,15.3,12,19.6,17.3,19.6z
	 M23.9,22h-1.2c-1.6,0.8-3.5,1.2-5.4,1.2s-3.8-0.4-5.4-1.2h-1.2c-5.5,0-10,4.5-10,10V35c0,2,1.6,3.6,3.6,3.6h26.1
	c2,0,3.6-1.6,3.6-3.6v-3.1C33.9,26.4,29.4,22,23.9,22z"/>
</svg>
