<svg width="15" height="5" viewBox="0 0 15 5" fill="none" xmlns="http://www.w3.org/2000/svg">
<path d="M9.38236 2.13895C9.38236 3.21618 8.51083 4.08771 7.43359 4.08771C6.35636 4.08771 5.48483 3.21618 5.48483 2.13895C5.48483 1.06172 6.35636 0.190186 7.43359 0.190186C8.51083 0.190186 9.38236 1.06172 9.38236 2.13895ZM12.1972 0.190186C11.12 0.190186 10.2485 1.06172 10.2485 2.13895C10.2485 3.21618 11.12 4.08771 12.1972 4.08771C13.2745 4.08771 14.146 3.21618 14.146 2.13895C14.146 1.06172 13.2745 0.190186 12.1972 0.190186ZM2.66995 0.190186C1.59272 0.190186 0.721191 1.06172 0.721191 2.13895C0.721191 3.21618 1.59272 4.08771 2.66995 4.08771C3.74719 4.08771 4.61872 3.21618 4.61872 2.13895C4.61872 1.06172 3.74719 0.190186 2.66995 0.190186Z" fill="#8B5997"/>
</svg>
