<?xml version="1.0" encoding="utf-8"?>
<!-- Generator: Adobe Illustrator 26.3.1, SVG Export Plug-In . SVG Version: 6.00 Build 0)  -->
<svg version="1.1" id="Camada_1" xmlns="http://www.w3.org/2000/svg" xmlns:xlink="http://www.w3.org/1999/xlink" x="0px" y="0px"
	 viewBox="0 0 39 35" style="enable-background:new 0 0 39 35;" xml:space="preserve">
<style type="text/css">
	.st0{fill:#391741;}
</style>
<path class="st0" d="M35,0.8H3.3C1.6,0.8,0.2,2.3,0.2,4v21.1c0,1.7,1.4,3.2,3.2,3.2H16L15,31.4h-4.8c-0.9,0-1.6,0.7-1.6,1.6
	s0.7,1.6,1.6,1.6h17.9c0.9,0,1.6-0.7,1.6-1.6s-0.7-1.6-1.6-1.6h-4.8l-1.1-3.2H35c1.7,0,3.2-1.4,3.2-3.2V4C38.2,2.3,36.8,0.8,35,0.8z
	 M34,24.1H4.4v-19H34V24.1z"/>
</svg>
