<svg width="26" height="26" viewBox="0 0 26 26" fill="none" xmlns="http://www.w3.org/2000/svg">
<g clip-path="url(#clip0_69_344)">
<path d="M13.3838 8.30725C10.8008 8.30725 8.69629 10.4117 8.69629 12.9948C8.69629 15.5778 10.8008 17.6823 13.3838 17.6823C15.9668 17.6823 18.0713 15.5778 18.0713 12.9948C18.0713 10.4117 15.9668 8.30725 13.3838 8.30725ZM25.415 12.2379L20.791 9.92834L22.4268 5.026C22.6465 4.36194 22.0166 3.73206 21.3574 3.95667L16.4551 5.59241L14.1406 0.963501C13.8281 0.338501 12.9395 0.338501 12.627 0.963501L10.3174 5.58752L5.41016 3.95178C4.74609 3.73206 4.11621 4.36194 4.34082 5.02112L5.97656 9.92346L1.35254 12.2379C0.727539 12.5504 0.727539 13.4391 1.35254 13.7516L5.97656 16.0612L4.34082 20.9684C4.12109 21.6324 4.75098 22.2623 5.41016 22.0377L10.3125 20.402L12.6221 25.026C12.9346 25.651 13.8232 25.651 14.1357 25.026L16.4453 20.402L21.3477 22.0377C22.0117 22.2574 22.6416 21.6276 22.417 20.9684L20.7812 16.066L25.4053 13.7565C26.04 13.4391 26.04 12.5504 25.415 12.2379ZM17.8027 17.4137C15.3662 19.8502 11.4014 19.8502 8.96484 17.4137C6.52832 14.9772 6.52832 11.0123 8.96484 8.57581C11.4014 6.13928 15.3662 6.13928 17.8027 8.57581C20.2393 11.0123 20.2393 14.9772 17.8027 17.4137Z" fill="#8B5997"/>
</g>
<defs>
<clipPath id="clip0_69_344">
<rect width="25" height="25" fill="white" transform="translate(0.883789 0.494751)"/>
</clipPath>
</defs>
</svg>
