<?xml version="1.0" encoding="utf-8"?>
<!-- Generator: Adobe Illustrator 26.3.1, SVG Export Plug-In . SVG Version: 6.00 Build 0)  -->
<svg version="1.1" id="Camada_1" xmlns="http://www.w3.org/2000/svg" xmlns:xlink="http://www.w3.org/1999/xlink" x="0px" y="0px"
	 viewBox="0 0 39 39" style="enable-background:new 0 0 39 39;" xml:space="preserve">
<style type="text/css">
	.st0{fill:#391741;}
</style>
<path class="st0" d="M38.7,19.4c0,10.6-8.6,19.2-19.2,19.2C9,38.6,0.4,30,0.4,19.4S9,0.3,19.6,0.3C30.2,0.3,38.7,8.8,38.7,19.4z
	 M17.4,29.6l14.2-14.2c0.5-0.5,0.5-1.3,0-1.7l-1.7-1.7c-0.5-0.5-1.3-0.5-1.7,0L16.5,23.5L11.1,18c-0.5-0.5-1.3-0.5-1.7,0l-1.7,1.7
	c-0.5,0.5-0.5,1.3,0,1.7l8,8C16.1,30.1,16.9,30.1,17.4,29.6L17.4,29.6z"/>
</svg>
