<svg width="10" height="10" viewBox="0 0 10 10" fill="none" xmlns="http://www.w3.org/2000/svg">
<g clip-path="url(#clip0_374_889)">
<path d="M9.77207 1.49332e-07H8.8461C8.81436 -3.56765e-05 8.78294 0.006375 8.75376 0.0188435C8.72457 0.0313119 8.69822 0.0495784 8.6763 0.0725351C8.65439 0.0954919 8.63736 0.122661 8.62626 0.152394C8.61516 0.182127 8.61021 0.213806 8.61172 0.245508L8.68985 1.86191C8.23562 1.32666 7.67022 0.896793 7.03299 0.60223C6.39577 0.307666 5.70202 0.155477 5 0.15625C2.33086 0.15625 0.154298 2.33457 0.156251 5.00371C0.158204 7.67715 2.32617 9.84375 5 9.84375C6.19942 9.84544 7.3565 9.40045 8.2457 8.59551C8.26946 8.57425 8.28863 8.54837 8.30204 8.51945C8.31544 8.49053 8.32281 8.45918 8.32369 8.42731C8.32457 8.39545 8.31894 8.36374 8.30714 8.33412C8.29534 8.30451 8.27763 8.27761 8.25508 8.25508L7.59102 7.59102C7.54899 7.549 7.49257 7.52452 7.43318 7.52252C7.37378 7.52053 7.31585 7.54117 7.27109 7.58027C6.74638 8.04192 6.09342 8.33266 5.39925 8.41374C4.70508 8.49482 4.00268 8.36238 3.38571 8.03408C2.76873 7.70578 2.26648 7.19721 1.94591 6.57618C1.62534 5.95515 1.50168 5.25116 1.59142 4.55806C1.68116 3.86495 1.98004 3.21567 2.4482 2.69676C2.91637 2.17786 3.53158 1.81398 4.21183 1.65364C4.89208 1.4933 5.60504 1.54412 6.25567 1.79931C6.9063 2.05451 7.46368 2.50197 7.85352 3.08203L5.87051 2.98691C5.83881 2.98541 5.80713 2.99035 5.77739 3.00146C5.74766 3.01256 5.72049 3.02958 5.69754 3.0515C5.67458 3.07341 5.65631 3.09976 5.64384 3.12895C5.63138 3.15814 5.62497 3.18955 5.625 3.22129V4.14727C5.625 4.20943 5.64969 4.26904 5.69365 4.31299C5.7376 4.35695 5.79722 4.38164 5.85938 4.38164H9.77207C9.83423 4.38164 9.89385 4.35695 9.9378 4.31299C9.98175 4.26904 10.0064 4.20943 10.0064 4.14727V0.234375C10.0064 0.172215 9.98175 0.112601 9.9378 0.068647C9.89385 0.0246932 9.83423 1.49332e-07 9.77207 1.49332e-07Z" fill="#8B5997"/>
</g>
<defs>
<clipPath id="clip0_374_889">
<rect width="10" height="10" fill="white"/>
</clipPath>
</defs>
</svg>
