<?xml version="1.0" encoding="utf-8"?>
<!-- Generator: Adobe Illustrator 26.3.1, SVG Export Plug-In . SVG Version: 6.00 Build 0)  -->
<svg version="1.1" id="Camada_1" xmlns="http://www.w3.org/2000/svg" xmlns:xlink="http://www.w3.org/1999/xlink" x="0px" y="0px"
	 viewBox="0 0 39 35" style="enable-background:new 0 0 39 35;" xml:space="preserve">
<style type="text/css">
	.st0{fill:#391741;}
</style>
<path class="st0" d="M22.6,30H1.5c-0.6,0-1.1,0.5-1.1,1.1v2.1c0,0.6,0.5,1.1,1.1,1.1h21.1c0.6,0,1.1-0.5,1.1-1.1v-2.1
	C23.7,30.5,23.2,30,22.6,30z M36.3,8.9V5.7c0-0.6-0.5-1.1-1.1-1.1s-1.1,0.5-1.1,1.1v3.2h-2.1V5.7c0-0.6-0.5-1.1-1.1-1.1
	c-0.6,0-1.1,0.5-1.1,1.1v3.2h-1.1c-0.6,0-1.1,0.5-1.1,1.1v2.1c0,2.4,1.6,4.3,3.7,5v7.8c0,0.9-0.6,1.8-1.5,1.9
	c-1.2,0.2-2.2-0.7-2.2-1.8v-1.8c0-3.2-2.6-5.8-5.8-5.8h-0.5V4.7c0-2.3-1.9-4.2-4.2-4.2H6.8c-2.3,0-4.2,1.9-4.2,4.2v23.2h19v-7.4h0.5
	c1.5,0,2.6,1.2,2.6,2.6v1.6c0,2.6,1.9,5,4.5,5.2c3,0.3,5.5-2.1,5.5-5v-7.9c2.1-0.7,3.7-2.7,3.7-5V9.9c0-0.6-0.5-1.1-1.1-1.1H36.3z
	 M17.6,12l-6.2,9.2c-0.1,0.2-0.4,0.3-0.7,0.3c-0.5,0-0.9-0.4-0.8-0.9l1.5-5.5H7.6c-0.5,0-0.8-0.4-0.8-0.8l1.1-7.1
	C7.9,7,8.2,6.8,8.6,6.8h4.5c0.5,0,0.9,0.4,0.8,0.9L13.1,11h3.8C17.5,11,17.9,11.6,17.6,12z"/>
</svg>
