<svg width="25" height="23" viewBox="0 0 25 23" fill="none" xmlns="http://www.w3.org/2000/svg">
<path d="M24.3136 12.376C25.2288 11.4607 25.2288 9.97676 24.3136 9.06148L16.5011 1.24898C15.5858 0.333698 14.1018 0.333649 13.1865 1.24898L0.686462 13.749C-0.228821 14.6643 -0.228821 16.1482 0.686462 17.0635L5.37396 21.751C5.81352 22.1906 6.40967 22.4375 7.03129 22.4375H24.4141C24.7377 22.4375 25 22.1752 25 21.8516V19.8984C25 19.5749 24.7377 19.3125 24.4141 19.3125H17.3771L24.3136 12.376ZM9.53685 9.31807L16.2445 16.0257L12.9577 19.3125H7.35492L3.44867 15.4063L9.53685 9.31807Z" fill="white"/>
</svg>
