<?xml version="1.0" encoding="utf-8"?>
<!-- Generator: Adobe Illustrator 26.3.1, SVG Export Plug-In . SVG Version: 6.00 Build 0)  -->
<svg version="1.1" id="Camada_1" xmlns="http://www.w3.org/2000/svg" xmlns:xlink="http://www.w3.org/1999/xlink" x="0px" y="0px"
	 viewBox="0 0 34 39" style="enable-background:new 0 0 34 39;" xml:space="preserve">
<style type="text/css">
	.st0{fill:#391741;}
</style>
<path class="st0" d="M26.9,12.3V9.9c0-5.2-4.3-9.5-9.5-9.5S7.9,4.7,7.9,9.9v2.4H0.7v20.2c0,3.3,2.7,5.9,5.9,5.9h21.4
	c3.3,0,5.9-2.7,5.9-5.9V12.3H26.9z M12.6,9.9c0-2.6,2.1-4.7,4.8-4.7s4.8,2.1,4.8,4.7v2.4h-9.5V9.9z M24.5,18.8c-1,0-1.8-0.8-1.8-1.8
	c0-1,0.8-1.8,1.8-1.8c1,0,1.8,0.8,1.8,1.8C26.3,18,25.5,18.8,24.5,18.8z M10.2,18.8c-1,0-1.8-0.8-1.8-1.8c0-1,0.8-1.8,1.8-1.8
	c1,0,1.8,0.8,1.8,1.8C12,18,11.2,18.8,10.2,18.8z"/>
</svg>
