<?xml version="1.0" encoding="utf-8"?>
<!-- Generator: Adobe Illustrator 26.3.1, SVG Export Plug-In . SVG Version: 6.00 Build 0)  -->
<svg version="1.1" id="Camada_1" xmlns="http://www.w3.org/2000/svg" xmlns:xlink="http://www.w3.org/1999/xlink" x="0px" y="0px"
	 viewBox="0 0 41 31" style="enable-background:new 0 0 41 31;" xml:space="preserve">
<style type="text/css">
	.st0{fill:#391741;}
</style>
<path class="st0" d="M8,0C3.6,0,0,3.5,0,7.8v15.5C0,27.5,3.6,31,8,31c4.4,0,8-3.5,8-7.8V7.8C15.9,3.5,12.4,0,8,0z M11.4,15.5H4.6
	V7.8c0-1.8,1.5-3.3,3.4-3.3s3.4,1.5,3.4,3.3V15.5z M21.3,13.4c-0.2-0.2-0.7-0.2-0.9,0.1c-3.2,4.3-2.9,10.4,1.1,14.3
	c4,3.9,10.2,4.2,14.7,1.1c0.3-0.2,0.3-0.6,0.1-0.9L21.3,13.4z M37.7,12.1C33.7,8.2,27.4,7.9,23,11c-0.3,0.2-0.3,0.6-0.1,0.9l15,14.6
	c0.2,0.2,0.7,0.2,0.9-0.1C42,22.1,41.7,16,37.7,12.1z"/>
</svg>
