<?xml version="1.0" encoding="utf-8"?>
<!-- Generator: Adobe Illustrator 26.3.1, SVG Export Plug-In . SVG Version: 6.00 Build 0)  -->
<svg version="1.1" id="Camada_1" xmlns="http://www.w3.org/2000/svg" xmlns:xlink="http://www.w3.org/1999/xlink" x="0px" y="0px"
	 viewBox="0 0 35 39" style="enable-background:new 0 0 35 39;" xml:space="preserve">
<style type="text/css">
	.st0{fill:#391741;}
</style>
<path class="st0" d="M1,34.6c0,2,1.6,3.6,3.6,3.6h26.1c2,0,3.6-1.6,3.6-3.6V14.4H1V34.6z M24.7,20c0-0.5,0.4-0.9,0.9-0.9h3
	c0.5,0,0.9,0.4,0.9,0.9v3c0,0.5-0.4,0.9-0.9,0.9h-3c-0.5,0-0.9-0.4-0.9-0.9V20z M24.7,29.5c0-0.5,0.4-0.9,0.9-0.9h3
	c0.5,0,0.9,0.4,0.9,0.9v3c0,0.5-0.4,0.9-0.9,0.9h-3c-0.5,0-0.9-0.4-0.9-0.9V29.5z M15.2,20c0-0.5,0.4-0.9,0.9-0.9h3
	c0.5,0,0.9,0.4,0.9,0.9v3c0,0.5-0.4,0.9-0.9,0.9h-3c-0.5,0-0.9-0.4-0.9-0.9V20z M15.2,29.5c0-0.5,0.4-0.9,0.9-0.9h3
	c0.5,0,0.9,0.4,0.9,0.9v3c0,0.5-0.4,0.9-0.9,0.9h-3c-0.5,0-0.9-0.4-0.9-0.9V29.5z M5.7,20c0-0.5,0.4-0.9,0.9-0.9h3
	c0.5,0,0.9,0.4,0.9,0.9v3c0,0.5-0.4,0.9-0.9,0.9h-3c-0.5,0-0.9-0.4-0.9-0.9V20z M5.7,29.5c0-0.5,0.4-0.9,0.9-0.9h3
	c0.5,0,0.9,0.4,0.9,0.9v3c0,0.5-0.4,0.9-0.9,0.9h-3c-0.5,0-0.9-0.4-0.9-0.9V29.5z M30.7,4.9h-3.6V1.3c0-0.7-0.5-1.2-1.2-1.2h-2.4
	c-0.7,0-1.2,0.5-1.2,1.2v3.6h-9.5V1.3c0-0.7-0.5-1.2-1.2-1.2H9.3c-0.7,0-1.2,0.5-1.2,1.2v3.6H4.6C2.6,4.9,1,6.5,1,8.5V12h33.2V8.5
	C34.2,6.5,32.6,4.9,30.7,4.9z"/>
</svg>
