<?xml version="1.0" encoding="utf-8"?>
<!-- Generator: Adobe Illustrator 26.3.1, SVG Export Plug-In . SVG Version: 6.00 Build 0)  -->
<svg version="1.1" id="Camada_1" xmlns="http://www.w3.org/2000/svg" xmlns:xlink="http://www.w3.org/1999/xlink" x="0px" y="0px"
	 viewBox="0 0 33 47" style="enable-background:new 0 0 33 47;" xml:space="preserve">
<style type="text/css">
	.st0{fill:#391741;}
</style>
<path class="st0" d="M9,41.7c0,0.6,0.2,1.1,0.5,1.6l1.6,2.4c0.3,0.4,0.6,0.7,1.1,1c0.4,0.2,0.9,0.3,1.4,0.3h5.8c0.5,0,1-0.1,1.4-0.3
	c0.4-0.2,0.8-0.6,1.1-1l1.6-2.4c0.3-0.5,0.5-1,0.5-1.6l0-3.5H9L9,41.7z M0,16.2c0,4.1,1.5,7.8,4.1,10.6c1.5,1.7,4,5.3,4.9,8.4
	c0,0,0,0,0,0.1h15c0,0,0,0,0-0.1c0.9-3,3.3-6.7,4.9-8.4c2.5-2.8,4.1-6.6,4.1-10.6C33,7.2,25.6,0,16.4,0C6.9,0,0,7.6,0,16.2z
	 M16.5,8.8c-4.1,0-7.5,3.3-7.5,7.3c0,0.8-0.7,1.5-1.5,1.5S6,17,6,16.2c0-5.7,4.7-10.3,10.5-10.3c0.8,0,1.5,0.7,1.5,1.5
	C18,8.2,17.3,8.8,16.5,8.8z"/>
</svg>
