<svg width="20" height="22" viewBox="0 0 20 22" fill="none" xmlns="http://www.w3.org/2000/svg">
<path d="M10.2036 9.13513V13.1072H15.6952C15.4541 14.3846 14.7304 15.4662 13.6451 16.1934L16.9568 18.7762C18.8863 16.9861 19.9995 14.3567 19.9995 11.2331C19.9995 10.5059 19.9346 9.80651 19.8139 9.13524L10.2036 9.13513Z" fill="#4285F4"/>
<path d="M4.48546 12.9521L3.73855 13.5268L1.09473 15.5967C2.77376 18.944 6.21506 21.2564 10.2039 21.2564C12.9589 21.2564 15.2687 20.3426 16.9571 18.7762L13.6454 16.1935C12.7363 16.8089 11.5767 17.1819 10.2039 17.1819C7.55085 17.1819 5.29674 15.3823 4.48963 12.9581L4.48546 12.9521Z" fill="#34A853"/>
<path d="M1.09454 6.4032C0.398845 7.78309 0 9.34022 0 10.9999C0 12.6595 0.398845 14.2166 1.09454 15.5965C1.09454 15.6058 4.48977 12.9485 4.48977 12.9485C4.28569 12.3331 4.16506 11.6805 4.16506 10.9998C4.16506 10.319 4.28569 9.66638 4.48977 9.051L1.09454 6.4032Z" fill="#FBBC05"/>
<path d="M10.2041 4.82744C11.7069 4.82744 13.0427 5.34957 14.1095 6.35658L17.0315 3.41955C15.2597 1.75991 12.9592 0.74353 10.2041 0.74353C6.21527 0.74353 2.77376 3.04656 1.09473 6.40321L4.48985 9.05123C5.29686 6.62696 7.55106 4.82744 10.2041 4.82744Z" fill="#EA4335"/>
</svg>
