<?xml version="1.0" encoding="utf-8"?>
<!-- Generator: Adobe Illustrator 26.3.1, SVG Export Plug-In . SVG Version: 6.00 Build 0)  -->
<svg version="1.1" id="Camada_1" xmlns="http://www.w3.org/2000/svg" xmlns:xlink="http://www.w3.org/1999/xlink" x="0px" y="0px"
	 viewBox="0 0 39 31" style="enable-background:new 0 0 39 31;" xml:space="preserve">
<style type="text/css">
	.st0{fill:#391741;}
</style>
<path class="st0" d="M34.9,0.9H3.2C1.4,0.9,0,2.4,0,4.1v1.1h38V4.1C38,2.4,36.6,0.9,34.9,0.9z M0,27.3c0,1.7,1.4,3.2,3.2,3.2h31.7
	c1.7,0,3.2-1.4,3.2-3.2V7.3H0V27.3z M23.2,12c0-0.3,0.2-0.5,0.5-0.5h9.5c0.3,0,0.5,0.2,0.5,0.5v1.1c0,0.3-0.2,0.5-0.5,0.5h-9.5
	c-0.3,0-0.5-0.2-0.5-0.5V12z M23.2,16.3c0-0.3,0.2-0.5,0.5-0.5h9.5c0.3,0,0.5,0.2,0.5,0.5v1.1c0,0.3-0.2,0.5-0.5,0.5h-9.5
	c-0.3,0-0.5-0.2-0.5-0.5V16.3z M23.2,20.5c0-0.3,0.2-0.5,0.5-0.5h9.5c0.3,0,0.5,0.2,0.5,0.5v1.1c0,0.3-0.2,0.5-0.5,0.5h-9.5
	c-0.3,0-0.5-0.2-0.5-0.5V20.5z M11.6,11.5c2.3,0,4.2,1.9,4.2,4.2s-1.9,4.2-4.2,4.2c-2.3,0-4.2-1.9-4.2-4.2S9.3,11.5,11.6,11.5z
	 M4.5,25c0.6-1.7,2.1-2.9,4-2.9H9c0.8,0.3,1.7,0.5,2.6,0.5c0.9,0,1.8-0.2,2.6-0.5h0.5c1.9,0,3.5,1.2,4,2.9c0.2,0.7-0.3,1.3-1,1.3
	H5.5C4.8,26.3,4.2,25.6,4.5,25L4.5,25z"/>
</svg>
